<svg width="48" height="48" viewBox="0 0 48 48" fill="none" xmlns="http://www.w3.org/2000/svg">
    <!-- 背景圆 -->
    <circle cx="24" cy="24" r="20" fill="#4096FF"/>
    
    <!-- 鲸鱼身体 -->
    <path d="M36 26C36 31.5228 31.5228 36 26 36C20.4772 36 12 31.5228 12 26C12 20.4772 15.4772 16 21 16C26.5228 16 36 20.4772 36 26Z" fill="white"/>
    
    <!-- 鲸鱼尾巴 -->
    <path d="M12 26C12 26 13 32 16 34C19 36 22 36 22 36C22 36 18 32 15 30C12 28 12 26 12 26Z" fill="#4096FF"/>
    
    <!-- 鲸鱼喷水 -->
    <path d="M26 16C26 16 28 12 24 10C20 8 18 12 18 12C18 12 22 11 24 13C26 15 26 16 26 16Z" fill="white"/>
    
    <!-- 鲸鱼眼睛 -->
    <circle cx="28" cy="24" r="2" fill="#4096FF"/>
    
    <!-- 鲸鱼微笑 -->
    <path d="M24 28C24 28 26 29 28 28" stroke="#4096FF" stroke-width="1.5" stroke-linecap="round"/>
</svg> 